<svg xmlns="http://www.w3.org/2000/svg"  viewBox="0 0 50 50" width="25px" height="25px"><path d="M 10.5 12 C 9.185 12 8.0007344 12.56675 7.1777344 13.46875 C 6.4467344 14.26875 6 15.333 6 16.5 L 6 33.5 C 6 34.66 6.4400625 35.719578 7.1640625 36.517578 C 7.9880625 37.427578 9.179 38 10.5 38 L 39.5 38 C 40.871 38 42.101734 37.384062 42.927734 36.414062 C 43.596734 35.628062 44 34.61 44 33.5 L 44 16.5 C 44 15.345 43.56175 14.290187 42.84375 13.492188 C 42.01975 12.576188 40.826 12 39.5 12 L 10.5 12 z M 10.5 13 L 39.5 13 C 40.104719 13 40.665089 13.170077 41.162109 13.441406 L 27.433594 26.855469 C 27.037594 27.243469 26.642375 27.526406 26.234375 27.691406 C 25.827375 27.856406 25.457906 27.9375 25.128906 27.9375 C 24.799906 27.9375 24.426719 27.851688 24.011719 27.679688 C 23.596719 27.507688 23.204219 27.227469 22.824219 26.855469 L 9.015625 13.341797 C 9.4677255 13.128272 9.9674165 13 10.5 13 z M 8.0859375 13.980469 L 19.683594 25.261719 L 8.2539062 36.160156 C 8.1693893 36.08872 8.0773971 36.026245 8 35.947266 C 7.382 35.315266 7 34.451 7 33.5 L 7 16.5 C 7 15.548 7.382 14.684734 8 14.052734 C 8.0261863 14.025971 8.0589086 14.006388 8.0859375 13.980469 z M 42.042969 14.107422 C 42.632592 14.734597 43 15.573956 43 16.5 L 43 33.5 C 43 34.468 42.60575 35.344516 41.96875 35.978516 C 41.944186 36.003002 41.913949 36.02117 41.888672 36.044922 L 30.576172 25.261719 L 42.042969 14.107422 z M 20.447266 26.003906 L 22.095703 27.607422 C 22.627703 28.125422 23.154875 28.485453 23.671875 28.689453 C 24.188875 28.893453 24.673906 28.996094 25.128906 28.996094 C 25.583906 28.996094 26.070891 28.894406 26.587891 28.691406 C 27.104891 28.487406 27.630109 28.127375 28.162109 27.609375 L 29.8125 26.003906 L 40.947266 36.677734 C 40.504847 36.880185 40.017402 37 39.5 37 L 10.5 37 C 10.054056 37 9.6309902 36.906827 9.2382812 36.753906 L 20.447266 26.003906 z"/></svg>