<svg xmlns="http://www.w3.org/2000/svg"  viewBox="0 0 24 24" width="100px" height="100px"><path d="M 12.021484 1.25 A 0.75 0.75 0 0 0 11.25 2 L 11.25 4 A 0.75 0.75 0 0 0 12 4.75 A 0.75 0.75 0 0 0 12.75 4 L 12.75 2 A 0.75 0.75 0 0 0 12.021484 1.25 z M 4.9589844 4.2089844 A 0.75 0.75 0 0 0 4.4003906 5.4589844 L 5.8125 6.8730469 A 0.746 0.746 0 0 0 6.34375 7.09375 A 0.75 0.75 0 0 0 6.8730469 5.8125 L 5.4589844 4.4003906 A 0.75 0.75 0 0 0 4.9589844 4.2089844 z M 19.019531 4.2089844 A 0.75 0.75 0 0 0 18.541016 4.4003906 L 17.126953 5.8125 A 0.75 0.75 0 0 0 17.65625 7.09375 A 0.749 0.749 0 0 0 18.1875 6.8730469 L 19.599609 5.4589844 A 0.75 0.75 0 0 0 19.019531 4.2089844 z M 12.021484 6.25 A 0.75 0.75 0 0 0 11.910156 6.2578125 A 5.75 5.75 0 0 0 6.5546875 10.154297 A 0.75 0.75 0 0 0 6.4746094 10.435547 A 5.75 5.75 0 0 0 6.4765625 13.591797 A 0.75 0.75 0 0 0 6.5703125 13.871094 A 5.75 5.75 0 0 0 11.925781 17.746094 A 0.75 0.75 0 0 0 12 17.75 A 0.75 0.75 0 0 0 12.052734 17.748047 A 5.757 5.757 0 0 0 17.75 12 A 5.75 5.75 0 0 0 12.109375 6.2578125 A 0.75 0.75 0 0 0 12.021484 6.25 z M 12.75 7.8183594 A 4.255 4.255 0 0 1 16.25 12 A 4.25 4.25 0 0 1 12.75 16.179688 L 12.75 7.8183594 z M 11.25 7.8203125 L 11.25 9.75 L 8.3964844 9.75 A 4.25 4.25 0 0 1 11.25 7.8203125 z M 1.96875 11.25 A 0.75 0.75 0 0 0 2 12.75 L 4 12.75 A 0.75 0.75 0 0 0 4 11.25 L 2 11.25 A 0.75 0.75 0 0 0 1.96875 11.25 z M 7.8183594 11.25 L 11.25 11.25 L 11.25 12.75 L 7.8222656 12.75 A 4.25 4.25 0 0 1 7.8183594 11.25 z M 19.96875 11.25 A 0.75 0.75 0 0 0 20 12.75 L 22 12.75 A 0.75 0.75 0 0 0 22 11.25 L 20 11.25 A 0.75 0.75 0 0 0 19.96875 11.25 z M 8.4003906 14.25 L 11.25 14.25 L 11.25 16.177734 A 4.25 4.25 0 0 1 8.4003906 14.25 z M 17.689453 16.90625 A 0.75024029 0.75024029 0 0 0 17.126953 18.1875 L 18.541016 19.601562 A 0.749 0.749 0 0 0 19.070312 19.820312 A 0.75 0.75 0 0 0 19.599609 18.541016 L 18.1875 17.126953 A 0.75024029 0.75024029 0 0 0 17.689453 16.90625 z M 6.3574219 16.916016 A 0.75 0.75 0 0 0 5.8125 17.126953 L 4.3984375 18.541016 A 0.75 0.75 0 0 0 4.9296875 19.820312 A 0.747 0.747 0 0 0 5.4589844 19.599609 L 6.8730469 18.1875 A 0.75 0.75 0 0 0 6.3574219 16.916016 z M 12.021484 19.25 A 0.75 0.75 0 0 0 11.25 20 L 11.25 22 A 0.75 0.75 0 0 0 12 22.75 A 0.75 0.75 0 0 0 12.75 22 L 12.75 20 A 0.75 0.75 0 0 0 12.021484 19.25 z"/></svg>